# xmcd CD database file
#
# Track frame offsets:
#	150
#	50968
#	108713
#	157634
#	222841
#
# Disc length: 3398 seconds
#
# Revision: 2
# Processed by: cddbd v1.5.2PL0 Copyright (c) Steve Scherf et al.
# Submitted via: CDex 1.51
#
DISCID=410d4405
DTITLE=Jean-Baptiste Pergolèse - Quatre Concertini pour cordes - Sonate pour clavecin en fa majour
DYEAR=1900
DGENRE=Classique
TTITLE0=Concertini N°5  [David Josefowitz, Orchestre baroque de Paris]
TTITLE1=Concertini N°2
TTITLE2=Concertini N°3
TTITLE3=Concertini N°1
TTITLE4=Sonate pour clavecin en fa majour - Moderato  [Transcription pour guitare, Edoardo Catemario]
EXTD=
EXTT0=
EXTT1=
EXTT2=
EXTT3=
EXTT4=
PLAYORDER=
